<?xml version="1.0" encoding="utf-8"?>
<!-- Generator: Adobe Illustrator 24.1.3, SVG Export Plug-In . SVG Version: 6.00 Build 0)  -->
<svg version="1.1" id="Layer_1" xmlns="http://www.w3.org/2000/svg" xmlns:xlink="http://www.w3.org/1999/xlink" x="0px" y="0px"
	 viewBox="0 0 209.7 69.7" style="enable-background:new 0 0 209.7 69.7;" xml:space="preserve">
<style type="text/css">
	.st0{fill-rule:evenodd;clip-rule:evenodd;fill:#5DC6AD;}
	.st1{enable-background:new    ;}
	.st2{fill:#5DC6AD;}
</style>
<g>
	<g>
		<path class="st0" d="M57.1,39.1C54.8,19,34,9.6,16.6,18.9c-2.4,1.3-5.5,3.9-7.3,6C4.7,30.3,2.6,38,3.5,45.2
			c1.6,13.1,14.1,24.5,30.1,22.7C47,66.5,58.8,54,57.1,39.1z M15.9,46.8c-1.1,3-2.9,4.2-0.7,8.9c1.2,2.6,3,4.2,4.8,6.1
			C13.7,60.6,0,44.6,15.9,46.8z M22.1,45.3c-9.4,0.1-14.9-3.1-14.1,6.3c-1.9-2.4-2.4-6.9-1-9.8c1.2-2.4,3.6-3.8,6.7-4.5
			c4.8-1.2,15.5-0.7,21-0.4C33.3,43.6,27.6,45.3,22.1,45.3z M39,30.5c-6.6,4-16.2,3.1-24,5c-4.9,1.2-5.8,2.7-8.5,5.3
			c1.2-18.8,25.7-25.3,38-18.9C44.4,25.5,41.7,28.9,39,30.5z"/>
		<path class="st0" d="M22.1,16.6c0.7-0.2,1.4-0.4,1.3-0.5c-0.2-0.2-0.4-0.4-0.7-1l-0.3-1c0.4-0.2,1.8-0.4,2.4-0.6
			c0.8-0.2,1.6-0.5,2.2-0.8c1.3-0.6,2.5-1.6,3.3-2.6c2.1-2.6,2-6.1,1.7-10c-0.5,0.3-0.8,0.7-1.5,1.1c-4.7,2.6-8.8,4.2-8.6,10.9
			l-0.6-1.2c-0.2-0.4-0.5-0.9-0.7-1.3c-0.5-0.9-0.9-1.9-1.7-2.1L18,8C18.2,9.4,21.6,13.3,22.1,16.6z"/>
	</g>
	<g>
		<g class="st1">
			<path class="st2" d="M70.4,54.3c0.1,0.1,0.1,0.2,0.1,0.3s0,0.2-0.1,0.3c-0.1,0.1-0.2,0.1-0.3,0.1h-1.8v5.6c0,0.1,0,0.2-0.1,0.3
				c-0.1,0.1-0.2,0.1-0.4,0.1c-0.1,0-0.3,0-0.4-0.1c-0.1-0.1-0.1-0.2-0.1-0.3v-5.6h-1.8c-0.1,0-0.3,0-0.3-0.1S65,54.8,65,54.7
				c0-0.1,0-0.2,0.1-0.3s0.2-0.1,0.3-0.1h4.6C70.2,54.2,70.3,54.3,70.4,54.3z"/>
			<path class="st2" d="M84.4,54.3c0.1,0.1,0.1,0.2,0.1,0.3v6c0,0.1-0.1,0.3-0.1,0.4c-0.1,0.1-0.2,0.1-0.4,0.1c-0.1,0-0.2,0-0.3-0.1
				c-0.1-0.1-0.1-0.2-0.1-0.4v-2.6H80v2.6c0,0.1,0,0.3-0.1,0.4c-0.1,0.1-0.2,0.1-0.4,0.1c-0.1,0-0.3,0-0.4-0.1
				C79.1,61,79,60.9,79,60.7v-6c0-0.1,0-0.2,0.1-0.3c0.1-0.1,0.2-0.1,0.4-0.1c0.1,0,0.2,0,0.3,0.1c0.1,0.1,0.1,0.2,0.1,0.3v2.5h3.6
				v-2.5c0-0.1,0-0.2,0.1-0.3c0.1-0.1,0.2-0.1,0.4-0.1C84.2,54.2,84.3,54.3,84.4,54.3z"/>
			<path class="st2" d="M94.4,61.1c-0.1,0.1-0.2,0.1-0.4,0.1c-0.1,0-0.3,0-0.4-0.1c-0.1-0.1-0.1-0.2-0.1-0.4v-6c0-0.1,0-0.2,0.1-0.3
				c0.1-0.1,0.2-0.1,0.4-0.1c0.1,0,0.2,0,0.3,0.1c0.1,0.1,0.1,0.2,0.1,0.3v6C94.6,60.9,94.5,61,94.4,61.1z"/>
			<path class="st2" d="M109.1,54.3c0.1,0.1,0.1,0.2,0.1,0.3v6.1c0,0.1,0,0.3-0.1,0.4c-0.1,0.1-0.2,0.1-0.3,0.1c-0.1,0-0.1,0-0.2,0
				c-0.1,0-0.1-0.1-0.2-0.1l-3.9-5.1v4.8c0,0.1,0,0.2-0.1,0.3c-0.1,0.1-0.2,0.1-0.3,0.1c-0.1,0-0.2,0-0.3-0.1
				c-0.1-0.1-0.1-0.2-0.1-0.3v-6.1c0-0.1,0-0.3,0.1-0.3c0.1-0.1,0.2-0.1,0.3-0.1c0.1,0,0.2,0,0.2,0c0.1,0,0.1,0.1,0.2,0.1l3.9,5.1
				v-4.9c0-0.1,0-0.2,0.1-0.3s0.2-0.1,0.3-0.1C108.9,54.2,109,54.3,109.1,54.3z"/>
			<path class="st2" d="M123.6,60.7c0,0.1-0.1,0.3-0.2,0.4c-0.1,0.1-0.2,0.1-0.4,0.1c-0.1,0-0.2-0.1-0.3-0.2l-2.4-3.1l-1.1,1.1v1.7
				c0,0.1,0,0.3-0.1,0.4c-0.1,0.1-0.2,0.1-0.4,0.1c-0.1,0-0.3,0-0.4-0.1c-0.1-0.1-0.1-0.2-0.1-0.4v-6c0-0.1,0-0.2,0.1-0.3
				c0.1-0.1,0.2-0.1,0.4-0.1s0.3,0,0.4,0.1c0.1,0.1,0.1,0.2,0.1,0.3v3.1l3.5-3.4c0.1-0.1,0.3-0.2,0.4-0.2c0.1,0,0.2,0,0.3,0.1
				c0.1,0.1,0.1,0.2,0.1,0.3c0,0.1,0,0.2-0.1,0.3l-2.4,2.2l2.5,3.2C123.6,60.5,123.6,60.6,123.6,60.7z"/>
			<path class="st2" d="M143.3,55.1v2.1h2.5c0.1,0,0.3,0,0.3,0.1s0.1,0.2,0.1,0.3c0,0.1,0,0.2-0.1,0.3c-0.1,0.1-0.2,0.1-0.3,0.1
				h-2.5v2.6c0,0.1,0,0.2-0.1,0.3c-0.1,0.1-0.2,0.1-0.3,0.1c-0.1,0-0.3,0-0.4-0.1c-0.1-0.1-0.1-0.2-0.1-0.3v-6c0-0.1,0-0.2,0.1-0.3
				c0.1-0.1,0.2-0.1,0.3-0.1h3.4c0.1,0,0.3,0,0.3,0.1c0.1,0.1,0.1,0.2,0.1,0.3c0,0.1,0,0.2-0.1,0.3c-0.1,0.1-0.2,0.1-0.3,0.1H143.3z
				"/>
			<path class="st2" d="M160.8,60.6c0,0.1,0.1,0.1,0.1,0.2c0,0.1,0,0.2-0.1,0.3c-0.1,0.1-0.2,0.1-0.3,0.1s-0.2,0-0.3-0.1
				c-0.2-0.1-0.4-0.3-0.5-0.5c-0.1-0.3-0.2-0.6-0.2-1.1c0-0.3-0.1-0.6-0.3-0.7s-0.5-0.2-0.8-0.2h-2v2.2c0,0.1,0,0.3-0.1,0.3
				s-0.2,0.1-0.3,0.1c-0.2,0-0.3,0-0.4-0.1c-0.1-0.1-0.2-0.2-0.2-0.3v-6c0-0.1,0-0.2,0.1-0.3c0.1-0.1,0.2-0.1,0.3-0.1h2.8
				c0.4,0,0.7,0.1,1,0.3c0.3,0.2,0.5,0.4,0.7,0.7c0.2,0.3,0.3,0.7,0.3,1c0,0.4-0.1,0.7-0.3,1s-0.5,0.6-0.8,0.7
				c0.2,0.1,0.4,0.3,0.6,0.5c0.1,0.2,0.2,0.5,0.2,0.8c0,0.4,0.1,0.6,0.1,0.8c0,0.1,0.1,0.2,0.2,0.3
				C160.7,60.5,160.7,60.5,160.8,60.6z M159,57.5c0.1-0.1,0.3-0.3,0.4-0.5c0.1-0.2,0.1-0.4,0.1-0.7c0-0.3-0.1-0.6-0.3-0.8
				c-0.2-0.2-0.4-0.3-0.7-0.3h-2.2v2.5h2.3C158.7,57.6,158.9,57.6,159,57.5z"/>
			<path class="st2" d="M173.7,60.4c0.1,0.1,0.1,0.2,0.1,0.3c0,0.1,0,0.2-0.1,0.3s-0.2,0.1-0.3,0.1h-3.5c-0.1,0-0.2,0-0.3-0.1
				c-0.1-0.1-0.1-0.2-0.1-0.3v-6c0-0.1,0-0.2,0.1-0.3c0.1-0.1,0.2-0.1,0.3-0.1h3.5c0.1,0,0.3,0,0.3,0.1s0.1,0.2,0.1,0.3
				c0,0.1,0,0.2-0.1,0.3c-0.1,0.1-0.2,0.1-0.3,0.1h-3v2h2.5c0.1,0,0.3,0,0.3,0.1c0.1,0.1,0.1,0.2,0.1,0.3c0,0.1,0,0.2-0.1,0.3
				c-0.1,0.1-0.2,0.1-0.3,0.1h-2.5v2.2h3C173.5,60.3,173.6,60.3,173.7,60.4z"/>
			<path class="st2" d="M183.3,61.1c-0.4-0.1-0.7-0.4-1.1-0.7c-0.1-0.1-0.2-0.3-0.2-0.4c0-0.1,0-0.2,0.1-0.3
				c0.1-0.1,0.2-0.1,0.3-0.1c0.1,0,0.2,0,0.3,0.1c0.3,0.2,0.5,0.4,0.8,0.5c0.3,0.1,0.6,0.2,1,0.2c0.4,0,0.8-0.1,1.1-0.3
				s0.4-0.4,0.4-0.7c0-0.3-0.2-0.6-0.4-0.8c-0.3-0.2-0.7-0.3-1.3-0.5c-0.7-0.1-1.2-0.4-1.6-0.7c-0.4-0.3-0.6-0.8-0.6-1.3
				c0-0.4,0.1-0.7,0.3-1c0.2-0.3,0.5-0.5,0.9-0.7c0.4-0.2,0.8-0.2,1.2-0.2c0.4,0,0.8,0.1,1.2,0.2c0.4,0.1,0.7,0.3,0.9,0.5
				c0.2,0.1,0.2,0.3,0.2,0.4c0,0.1,0,0.2-0.1,0.3c-0.1,0.1-0.2,0.1-0.3,0.1c-0.1,0-0.2,0-0.2-0.1c-0.2-0.2-0.4-0.3-0.7-0.4
				s-0.6-0.2-0.9-0.2c-0.4,0-0.8,0.1-1.1,0.3c-0.3,0.2-0.4,0.4-0.4,0.7c0,0.3,0.1,0.6,0.4,0.8c0.3,0.2,0.7,0.3,1.2,0.4
				c0.5,0.1,0.9,0.2,1.3,0.4c0.3,0.2,0.6,0.4,0.8,0.6s0.3,0.6,0.3,1.1c0,0.4-0.1,0.7-0.3,1c-0.2,0.3-0.5,0.5-0.9,0.7
				c-0.4,0.2-0.8,0.2-1.2,0.2C184.1,61.3,183.7,61.2,183.3,61.1z"/>
			<path class="st2" d="M201,54.3c0.1,0.1,0.1,0.2,0.1,0.3v6c0,0.1-0.1,0.3-0.2,0.4c-0.1,0.1-0.2,0.1-0.4,0.1c-0.1,0-0.2,0-0.3-0.1
				c-0.1-0.1-0.1-0.2-0.1-0.4v-2.6h-3.5v2.6c0,0.1-0.1,0.3-0.2,0.4c-0.1,0.1-0.2,0.1-0.3,0.1c-0.1,0-0.3,0-0.4-0.1
				c-0.1-0.1-0.1-0.2-0.1-0.4v-6c0-0.1,0-0.2,0.1-0.3c0.1-0.1,0.2-0.1,0.4-0.1c0.1,0,0.2,0,0.3,0.1c0.1,0.1,0.1,0.2,0.1,0.3v2.5h3.5
				v-2.5c0-0.1,0-0.2,0.1-0.3c0.1-0.1,0.2-0.1,0.4-0.1C200.8,54.2,200.9,54.3,201,54.3z"/>
		</g>
		<g class="st1">
			<path class="st2" d="M69.5,29.2v6h7.3c0.6,0,1.1,0.2,1.5,0.6c0.4,0.4,0.6,0.9,0.6,1.4c0,0.5-0.2,0.9-0.6,1.3
				c-0.4,0.4-0.9,0.6-1.5,0.6h-7.3V47c0,0.6-0.2,1.1-0.6,1.5s-0.9,0.6-1.5,0.6c-0.6,0-1.2-0.2-1.5-0.6c-0.4-0.4-0.6-0.9-0.6-1.5
				V27.4c0-0.6,0.2-1.1,0.6-1.5c0.4-0.4,0.9-0.6,1.5-0.6h11c0.6,0,1.1,0.2,1.5,0.6s0.6,0.9,0.6,1.4c0,0.5-0.2,0.9-0.6,1.3
				s-0.9,0.6-1.5,0.6H69.5z"/>
			<path class="st2" d="M105.6,46.5c0.2,0.3,0.3,0.6,0.3,0.9c0,0.4-0.1,0.8-0.4,1.1c-0.3,0.4-0.9,0.6-1.6,0.6c-0.5,0-1-0.1-1.5-0.4
				c-1.6-0.9-2.4-2.8-2.4-5.7c0-0.8-0.3-1.5-0.8-1.9c-0.5-0.5-1.3-0.7-2.3-0.7h-6.4V47c0,0.6-0.2,1.1-0.5,1.5
				c-0.3,0.4-0.8,0.6-1.3,0.6c-0.7,0-1.2-0.2-1.7-0.6s-0.7-0.9-0.7-1.5V27.4c0-0.6,0.2-1.1,0.6-1.5c0.4-0.4,0.9-0.6,1.5-0.6h9.8
				c1.2,0,2.3,0.3,3.3,1c1,0.6,1.9,1.5,2.5,2.6c0.6,1.1,0.9,2.4,0.9,3.7c0,1.1-0.3,2.2-0.9,3.3c-0.6,1.1-1.4,1.9-2.4,2.6
				c1.4,1,2.2,2.3,2.3,4c0.1,0.4,0.1,0.7,0.1,1.1c0.1,0.7,0.2,1.2,0.3,1.5c0.1,0.3,0.3,0.5,0.6,0.7C105.2,46,105.4,46.2,105.6,46.5z
				 M99.1,36.4c0.4-0.4,0.7-0.9,1-1.5c0.2-0.6,0.4-1.3,0.4-2.1c0-0.6-0.1-1.2-0.4-1.8c-0.2-0.5-0.6-1-1-1.3
				c-0.4-0.3-0.8-0.5-1.2-0.5h-7.4V37h7.4C98.3,37,98.7,36.8,99.1,36.4z"/>
			<path class="st2" d="M130.3,47.3c0,0.6-0.2,1.1-0.6,1.4c-0.4,0.4-0.8,0.6-1.3,0.6c-0.4,0-0.8-0.1-1.1-0.4s-0.6-0.6-0.8-1
				l-1.8-4.1h-10.1l-1.8,4.1c-0.2,0.4-0.4,0.8-0.7,1c-0.3,0.2-0.7,0.4-1.1,0.4c-0.6,0-1-0.2-1.3-0.5c-0.3-0.3-0.5-0.7-0.5-1.3
				c0-0.2,0-0.4,0.1-0.6l8.5-20.3c0.2-0.5,0.5-0.8,0.8-1.1c0.4-0.2,0.8-0.4,1.2-0.3c0.4,0,0.8,0.1,1.1,0.4s0.6,0.6,0.8,1l8.4,19.9
				C130.2,46.8,130.3,47,130.3,47.3z M116.3,39.9h6.8l-3.4-8L116.3,39.9z"/>
			<path class="st2" d="M153.9,47.3c0,0.6-0.2,1.1-0.6,1.4s-0.8,0.6-1.3,0.6c-0.4,0-0.8-0.1-1.1-0.4c-0.3-0.2-0.6-0.6-0.8-1
				l-1.8-4.1h-10.1l-1.8,4.1c-0.2,0.4-0.4,0.8-0.7,1c-0.3,0.2-0.7,0.4-1.1,0.4c-0.6,0-1-0.2-1.3-0.5c-0.3-0.3-0.5-0.7-0.5-1.3
				c0-0.2,0-0.4,0.1-0.6l8.5-20.3c0.2-0.5,0.5-0.8,0.8-1.1c0.4-0.2,0.8-0.4,1.2-0.3c0.4,0,0.8,0.1,1.1,0.4s0.6,0.6,0.8,1l8.4,19.9
				C153.8,46.8,153.9,47,153.9,47.3z M139.9,39.9h6.8l-3.4-8L139.9,39.9z"/>
			<path class="st2" d="M176.5,28.6l-12.9,16.6h10.8c0.6,0,1.1,0.2,1.5,0.5c0.4,0.4,0.6,0.8,0.6,1.4c0,0.6-0.2,1-0.6,1.4
				c-0.4,0.4-0.9,0.6-1.5,0.6h-14.9c-0.6,0-1.1-0.2-1.5-0.6c-0.4-0.4-0.6-0.9-0.6-1.4c0-0.4,0.2-0.9,0.5-1.3l12.9-16.6h-9.8
				c-0.6,0-1.1-0.2-1.5-0.5c-0.4-0.4-0.6-0.8-0.6-1.4c0-0.6,0.2-1,0.6-1.4s0.9-0.5,1.5-0.5h13.9c0.5,0,1,0.2,1.5,0.6
				s0.7,0.9,0.7,1.4C176.9,27.8,176.8,28.2,176.5,28.6z"/>
			<path class="st2" d="M202.8,43.4c-1,1.9-2.4,3.3-4.1,4.4c-1.8,1.1-3.7,1.6-5.9,1.6s-4.2-0.5-5.9-1.6c-1.8-1.1-3.1-2.6-4.1-4.4
				c-1-1.9-1.5-3.9-1.5-6.2c0-2.2,0.5-4.3,1.5-6.2s2.4-3.3,4.1-4.4c1.8-1.1,3.7-1.6,5.9-1.6s4.2,0.5,5.9,1.6
				c1.8,1.1,3.1,2.6,4.1,4.4c1,1.9,1.5,3.9,1.5,6.2C204.3,39.5,203.8,41.5,202.8,43.4z M198.9,33.1c-0.6-1.2-1.5-2.2-2.6-2.9
				c-1.1-0.7-2.3-1.1-3.7-1.1c-1.4,0-2.6,0.4-3.7,1.1c-1.1,0.7-1.9,1.7-2.5,2.9c-0.6,1.2-0.9,2.6-0.9,4.1c0,1.5,0.3,2.9,0.9,4.1
				c0.6,1.2,1.4,2.2,2.5,2.9c1.1,0.7,2.3,1.1,3.7,1.1c1.4,0,2.6-0.4,3.7-1.1c1.1-0.7,1.9-1.7,2.6-2.9c0.6-1.2,0.9-2.6,0.9-4.1
				C199.9,35.7,199.5,34.3,198.9,33.1z"/>
		</g>
	</g>
</g>
</svg>
