<svg width="724" height="784" viewBox="0 0 724 784" fill="none" xmlns="http://www.w3.org/2000/svg">
<path opacity="0.15" d="M111.768 122.6C-11.7494 113.034 -8.97534 42.0902 -52.1083 0L-356 223.843C-292.608 415.163 -128.31 886.339 -84.3929 763.895C21.2321 426.272 184.09 557.006 415.44 648.839C646.789 740.672 853.029 582.824 624.804 303.672C396.578 -92.4219 235.285 132.166 111.768 122.6Z" fill="#5DC6AD"/>
<path opacity="0.15" d="M256.032 682.177C251.999 711.718 226.149 700.8 188.351 695.639C150.552 690.479 115.117 693.03 119.15 663.489C123.184 633.948 157.095 614.183 194.894 619.344C232.693 624.505 260.065 652.636 256.032 682.177Z" fill="#5DC6AD"/>
<path opacity="0.15" d="M662.779 151.961C650.519 164.221 638.757 143.473 601.479 134.986C562.813 134.986 554.683 109.081 571.301 89.1912C587.918 69.3013 612.787 67.4931 638.757 89.1903C664.728 110.888 672.21 134.986 662.779 151.961Z" fill="#5DC6AD"/>
</svg>
