<svg width="16" height="16" viewBox="0 0 16 16" fill="none" xmlns="http://www.w3.org/2000/svg">
<path d="M8.00016 14.6667C11.6821 14.6667 14.6668 11.6819 14.6668 8C14.6668 4.3181 11.6821 1.33333 8.00016 1.33333C4.31826 1.33333 1.3335 4.3181 1.3335 8C1.3335 11.6819 4.31826 14.6667 8.00016 14.6667Z" stroke="#4C4C4C" stroke-width="1.5" stroke-linecap="round" stroke-linejoin="round"/>
<path d="M6.06006 5.99997C6.21679 5.55441 6.52616 5.17871 6.93336 4.93939C7.34056 4.70007 7.81932 4.61259 8.28484 4.69244C8.75036 4.77229 9.1726 5.01432 9.47678 5.37565C9.78095 5.73699 9.94743 6.19432 9.94672 6.66663C9.94672 7.99997 7.94672 8.66664 7.94672 8.66664" stroke="#4C4C4C" stroke-width="1.5" stroke-linecap="round" stroke-linejoin="round"/>
<path d="M8 11.3333H8.00667" stroke="#4C4C4C" stroke-width="1.5" stroke-linecap="round" stroke-linejoin="round"/>
</svg>
